<svg width="23" height="24" viewBox="0 0 23 24" xmlns="http://www.w3.org/2000/svg">
<path fill-rule="evenodd" clip-rule="evenodd" d="M8.23983 10.1682L6.77363 6.99153L5.30499 10.1682H8.23983ZM6.91053 5.90408C6.98619 5.93825 7.04012 5.99706 7.07185 6.06539L10.0848 12.5874C10.1629 12.7536 10.0897 12.9515 9.92346 13.0272C9.75727 13.1028 9.5618 13.0296 9.48614 12.8658L8.54537 10.8303H4.99969L4.05892 12.8658C3.98326 13.0296 3.78779 13.1028 3.62159 13.0272C3.4554 12.9515 3.38463 12.7536 3.46028 12.5874L6.47321 6.06539C6.54887 5.8992 6.74434 5.82575 6.91053 5.90408ZM9.48858 22.555L13.3618 18.8529C13.4447 18.7821 13.4938 18.6745 13.4791 18.5571L12.0715 7.26754L11.4997 2.70031L11.3799 1.74001C11.3213 1.25852 11.1137 0.816317 10.7984 0.498576C10.4904 0.190596 10.0823 0 9.60353 0H1.84229C1.35348 0 0.908835 0.200358 0.586212 0.52298C0.26359 0.845602 0.0634766 1.29049 0.0634766 1.77906V17.1495C0.0634766 17.6383 0.263834 18.0854 0.586456 18.4056C0.909079 18.7282 1.35372 18.9286 1.84254 18.9286H7.85644V21.0644C7.85644 21.6948 8.11536 22.2692 8.53097 22.6846C8.94632 23.0999 9.52055 23.3591 10.1536 23.3591H20.6784C21.3087 23.3591 21.8832 23.1002 22.2985 22.6846C22.7163 22.2692 22.9731 21.695 22.9731 21.0644V6.16057C22.9731 5.52777 22.7166 4.9533 22.2985 4.53794C21.8832 4.12258 21.309 3.86341 20.6784 3.86341H12.3134L12.3963 4.52574H20.6779C21.1274 4.52574 21.5357 4.70901 21.8312 5.00479C22.127 5.30301 22.3103 5.71105 22.3103 6.16057V21.0644C22.3103 21.5115 22.127 21.9198 21.8312 22.2177C21.5354 22.5135 21.1274 22.6968 20.6779 22.6968H10.1534C9.91614 22.6968 9.69138 22.6455 9.48858 22.555ZM14.344 11.6344C14.1607 11.6344 14.0141 11.4877 14.0141 11.3045C14.0141 11.1212 14.1607 10.9721 14.344 10.9721H17.0273V10.349C17.0273 10.1658 17.1739 10.0191 17.3572 10.0191C17.5405 10.0191 17.6896 10.1658 17.6896 10.349V10.9721H20.3704C20.5536 10.9721 20.7028 11.1212 20.7028 11.3045C20.7028 11.4877 20.5536 11.6344 20.3704 11.6344H19.2561C19.2536 11.6808 19.2512 11.7274 19.2488 11.7738C19.239 11.9204 19.2244 12.0744 19.2048 12.2357C19.0313 13.5601 18.4986 14.7674 17.7679 15.6545C18.3568 16.2116 19.0386 16.5416 19.7278 16.5416C19.9086 16.5416 20.0578 16.6907 20.0578 16.874C20.0578 17.0572 19.9086 17.2039 19.7278 17.2039C18.8651 17.2039 18.0271 16.8056 17.3208 16.136C16.6121 16.8056 15.7741 17.2039 14.9114 17.2039C14.7281 17.2039 14.5815 17.0572 14.5815 16.874C14.5815 16.6907 14.7281 16.5416 14.9114 16.5416C15.6006 16.5416 16.2822 16.2116 16.8713 15.6521C16.2458 14.8921 15.7643 13.9023 15.5323 12.8053C15.4932 12.6269 15.6079 12.451 15.7863 12.4119C15.9647 12.3753 16.1407 12.49 16.1773 12.6684C16.3825 13.6263 16.7905 14.4914 17.3184 15.161C17.9439 14.3694 18.3985 13.3137 18.5501 12.153C18.5672 12.0161 18.5794 11.8767 18.5891 11.7352C18.5916 11.701 18.594 11.6693 18.594 11.6349H17.3574H14.344V11.6344Z" />
</svg>
