<svg width="28" height="23" viewBox="0 0 28 23" fill="none" xmlns="http://www.w3.org/2000/svg">
<path d="M21.4596 12.0034L20.4404 14.4853H22.4788L21.4596 12.0034Z" fill="black"/>
<path d="M12.3203 15.9437V17.8308C12.3203 19.1747 13.3899 20.267 14.7059 20.267H21.8851L24.3995 22.8346C24.5059 22.9432 24.6515 23.0004 24.7915 23.0004C24.8643 23.0004 24.9371 22.9833 25.0099 22.9547C25.2171 22.8689 25.3515 22.6573 25.3515 22.4286V20.267H25.6147C26.9307 20.267 28.0003 19.1747 28.0003 17.8308V9.76766C28.0003 8.42379 26.9307 7.33154 25.6147 7.33154H19.0963V12.0722C19.0963 14.2053 17.3939 15.9437 15.2995 15.9437H12.3203ZM18.2619 16.8472L19.0851 14.84V14.8343L20.9443 10.2995C21.0283 10.0822 21.2355 9.94493 21.4595 9.94493C21.6835 9.94493 21.8907 10.0822 21.9747 10.2995L23.8339 14.8343L23.8395 14.84L24.6571 16.8472C24.7803 17.1389 24.6459 17.4706 24.3603 17.5964C24.2875 17.625 24.2147 17.6364 24.1419 17.6364C23.9235 17.6364 23.7163 17.5049 23.6267 17.2876L22.9491 15.6292H19.9699L19.2923 17.2876C19.1747 17.5792 18.8443 17.7165 18.5643 17.5964C18.2787 17.4763 18.1443 17.1389 18.2619 16.8472Z" fill="black"/>
<path d="M10.1592 6.15283H7.81836C8.07036 6.6675 8.45676 7.37661 8.98876 8.07427C9.52076 7.37661 9.90716 6.6675 10.1592 6.15283Z" fill="black"/>
<path d="M2.6712 14.7997H3.0632V17.3902C3.0632 17.6246 3.1976 17.8305 3.4048 17.922C3.4776 17.9506 3.5504 17.962 3.6232 17.962C3.7688 17.962 3.9088 17.9049 4.0152 17.7962L6.9552 14.7997H15.2992C16.772 14.7997 17.976 13.5759 17.976 12.0719V2.73348C17.976 1.22949 16.772 0 15.2992 0H2.6712C1.1984 0 0 1.22949 0 2.73348V12.0662C0 13.5759 1.1984 14.7997 2.6712 14.7997ZM5.0624 5.00947H8.428V3.87147C8.428 3.55695 8.6744 3.29962 8.988 3.29962C9.296 3.29962 9.548 3.55695 9.548 3.87147V5.00947H12.9136C13.2216 5.00947 13.4736 5.26681 13.4736 5.58133C13.4736 5.89585 13.2216 6.15318 12.9136 6.15318H11.396C11.1552 6.72504 10.612 7.84588 9.744 8.93813C10.416 9.60148 11.228 10.1562 12.1856 10.3678C12.488 10.4364 12.684 10.7395 12.6168 11.0483C12.5608 11.3171 12.3256 11.5001 12.068 11.5001C12.0288 11.5001 11.9896 11.4943 11.9504 11.4829C10.7632 11.2198 9.7776 10.5622 8.988 9.78448C8.1928 10.5622 7.2128 11.2198 6.0256 11.4829C5.9864 11.4943 5.9416 11.5001 5.9024 11.5001C5.6448 11.5001 5.4152 11.3171 5.3592 11.0483C5.292 10.7395 5.4824 10.4364 5.7848 10.3678C6.748 10.1505 7.56 9.60148 8.2264 8.93813C7.3584 7.8516 6.8208 6.72504 6.5744 6.15318H5.0624C4.7488 6.15318 4.5024 5.89585 4.5024 5.58133C4.5024 5.26681 4.7488 5.00947 5.0624 5.00947Z" fill="black"/>
</svg>
