<svg width="20" height="20" viewBox="0 0 20 20" fill="none" xmlns="http://www.w3.org/2000/svg">
<path d="M10.3035 20C14.6 20 18.4821 17.2929 19.9678 13.2643C20.0393 13.0679 19.9892 12.85 19.8428 12.7C19.6964 12.5536 19.475 12.5071 19.2785 12.5786C18.2571 12.9571 17.1821 13.1464 16.0821 13.1464C10.9929 13.1464 6.85356 9.00715 6.85356 3.91788C6.85356 2.8179 7.04284 1.7429 7.42143 0.721455C7.49641 0.52503 7.44641 0.303605 7.29999 0.157184C7.15357 0.0107454 6.93212 -0.0392402 6.7357 0.0321704C2.70715 1.5179 0 5.40003 0 9.69644C0 15.3786 4.62142 20 10.3035 20Z" fill="black"/>
</svg>
