<svg width="16" height="23" viewBox="0 0 16 23" xmlns="http://www.w3.org/2000/svg">
<path fill-rule="evenodd" clip-rule="evenodd" d="M10.8571 11.4286H5.14286C2.30286 11.4286 2.73908e-06 13.7314 2.73908e-06 16.5714C2.73908e-06 17.6549 2.73908e-06 18.6811 2.73908e-06 19.3234C-0.00114012 19.9634 0.35543 20.5509 0.92343 20.8457L0.924572 20.8469C5.54857 23.2183 10.256 23.2389 15.0526 20.8411C15.6297 20.5497 15.9954 19.9589 15.9954 19.3131C16 18.6743 16 17.6514 16 16.5714C16 13.7314 13.6971 11.4286 10.8571 11.4286ZM8 0C5.16114 0 2.85715 2.304 2.85715 5.14286C2.85715 7.98171 5.16114 10.2857 8 10.2857C10.8389 10.2857 13.1429 7.98171 13.1429 5.14286C13.1429 2.304 10.8389 0 8 0Z" />
</svg>
