<svg width="25" height="25" viewBox="0 0 25 25" fill="none" xmlns="http://www.w3.org/2000/svg">
<path d="M11.6071 2.67857V0.892857C11.6071 0.656057 11.7012 0.428955 11.8687 0.261512C12.0361 0.0940686 12.2632 0 12.5 0C12.7368 0 12.9639 0.0940686 13.1313 0.261512C13.2988 0.428955 13.3929 0.656057 13.3929 0.892857V2.67857C13.3929 2.91537 13.2988 3.14247 13.1313 3.30992C12.9639 3.47736 12.7368 3.57143 12.5 3.57143C12.2632 3.57143 12.0361 3.47736 11.8687 3.30992C11.7012 3.14247 11.6071 2.91537 11.6071 2.67857ZM19.6429 6.25C19.7604 6.25068 19.8768 6.22816 19.9856 6.18372C20.0944 6.13929 20.1934 6.07382 20.2768 5.99107L21.3393 4.91964C21.4328 4.8396 21.5087 4.7411 21.5623 4.63033C21.6158 4.51956 21.646 4.3989 21.6507 4.27594C21.6555 4.15298 21.6347 4.03036 21.5899 3.91578C21.545 3.80121 21.4769 3.69715 21.3899 3.61013C21.3029 3.52312 21.1988 3.45503 21.0842 3.41015C20.9696 3.36526 20.847 3.34454 20.7241 3.34929C20.6011 3.35404 20.4804 3.38415 20.3697 3.43774C20.2589 3.49134 20.1604 3.56725 20.0804 3.66071L19.0089 4.72321C18.9252 4.80622 18.8588 4.90497 18.8135 5.01377C18.7682 5.12257 18.7448 5.23928 18.7448 5.35714C18.7448 5.47501 18.7682 5.59171 18.8135 5.70051C18.8588 5.80932 18.9252 5.90807 19.0089 5.99107C19.0924 6.07382 19.1913 6.13929 19.3001 6.18372C19.4089 6.22816 19.5254 6.25068 19.6429 6.25ZM24.1071 11.6071H22.3214C22.0846 11.6071 21.8575 11.7012 21.6901 11.8687C21.5226 12.0361 21.4286 12.2632 21.4286 12.5C21.4286 12.7368 21.5226 12.9639 21.6901 13.1313C21.8575 13.2988 22.0846 13.3929 22.3214 13.3929H24.1071C24.3439 13.3929 24.571 13.2988 24.7385 13.1313C24.9059 12.9639 25 12.7368 25 12.5C25 12.2632 24.9059 12.0361 24.7385 11.8687C24.571 11.7012 24.3439 11.6071 24.1071 11.6071ZM20.2768 19.0089C20.1087 18.8408 19.8806 18.7463 19.6429 18.7463C19.4051 18.7463 19.1771 18.8408 19.0089 19.0089C18.8408 19.1771 18.7463 19.4051 18.7463 19.6429C18.7463 19.8806 18.8408 20.1087 19.0089 20.2768L20.0804 21.3393C20.2467 21.5042 20.4711 21.5972 20.7054 21.5982C20.8229 21.5989 20.9393 21.5764 21.0481 21.5319C21.1569 21.4875 21.2559 21.422 21.3393 21.3393C21.5056 21.172 21.5989 20.9457 21.5989 20.7098C21.5989 20.4739 21.5056 20.2476 21.3393 20.0804L20.2768 19.0089ZM12.5 21.4286C12.2632 21.4286 12.0361 21.5226 11.8687 21.6901C11.7012 21.8575 11.6071 22.0846 11.6071 22.3214V24.1071C11.6071 24.3439 11.7012 24.571 11.8687 24.7385C12.0361 24.9059 12.2632 25 12.5 25C12.7368 25 12.9639 24.9059 13.1313 24.7385C13.2988 24.571 13.3929 24.3439 13.3929 24.1071V22.3214C13.3929 22.0846 13.2988 21.8575 13.1313 21.6901C12.9639 21.5226 12.7368 21.4286 12.5 21.4286ZM4.72321 19.0089L3.66071 20.0804C3.49442 20.2476 3.40108 20.4739 3.40108 20.7098C3.40108 20.9457 3.49442 21.172 3.66071 21.3393C3.74414 21.422 3.84309 21.4875 3.95187 21.5319C4.06065 21.5764 4.17714 21.5989 4.29464 21.5982C4.52887 21.5972 4.75334 21.5042 4.91964 21.3393L5.99107 20.2768C6.07432 20.1935 6.14036 20.0947 6.18541 19.9859C6.23046 19.8772 6.25365 19.7606 6.25365 19.6429C6.25365 19.5251 6.23046 19.4085 6.18541 19.2998C6.14036 19.191 6.07432 19.0922 5.99107 19.0089C5.90782 18.9257 5.80899 18.8596 5.70022 18.8146C5.59145 18.7695 5.47487 18.7463 5.35714 18.7463C5.23941 18.7463 5.12283 18.7695 5.01406 18.8146C4.90529 18.8596 4.80646 18.9257 4.72321 19.0089ZM2.67857 11.6071H0.892857C0.656057 11.6071 0.428955 11.7012 0.261512 11.8687C0.0940686 12.0361 0 12.2632 0 12.5C0 12.7368 0.0940686 12.9639 0.261512 13.1313C0.428955 13.2988 0.656057 13.3929 0.892857 13.3929H2.67857C2.91537 13.3929 3.14247 13.2988 3.30992 13.1313C3.47736 12.9639 3.57143 12.7368 3.57143 12.5C3.57143 12.2632 3.47736 12.0361 3.30992 11.8687C3.14247 11.7012 2.91537 11.6071 2.67857 11.6071ZM4.72321 5.99107C4.80664 6.07382 4.90559 6.13929 5.01437 6.18372C5.12315 6.22816 5.23964 6.25068 5.35714 6.25C5.47465 6.25068 5.59113 6.22816 5.69992 6.18372C5.8087 6.13929 5.90764 6.07382 5.99107 5.99107C6.07476 5.90807 6.14118 5.80932 6.18651 5.70051C6.23184 5.59171 6.25518 5.47501 6.25518 5.35714C6.25518 5.23928 6.23184 5.12257 6.18651 5.01377C6.14118 4.90497 6.07476 4.80622 5.99107 4.72321L4.91964 3.66071C4.74884 3.51444 4.52913 3.43801 4.30442 3.44669C4.07971 3.45537 3.86655 3.54852 3.70753 3.70753C3.54852 3.86655 3.45537 4.07971 3.44669 4.30442C3.43801 4.52913 3.51444 4.74884 3.66071 4.91964L4.72321 5.99107ZM12.5 5.35714C11.0873 5.35714 9.70628 5.77606 8.53164 6.56093C7.357 7.3458 6.44149 8.46136 5.90086 9.76655C5.36023 11.0717 5.21878 12.5079 5.49439 13.8935C5.77 15.2791 6.45029 16.5518 7.44924 17.5508C8.44818 18.5497 9.72092 19.23 11.1065 19.5056C12.4921 19.7812 13.9283 19.6398 15.2335 19.0991C16.5386 18.5585 17.6542 17.643 18.4391 16.4684C19.2239 15.2937 19.6429 13.9127 19.6429 12.5C19.6429 10.6056 18.8903 8.78878 17.5508 7.44924C16.2112 6.10969 14.3944 5.35714 12.5 5.35714Z" fill="black"/>
</svg>
