<svg width="22" height="25" viewBox="0 0 22 25" xmlns="http://www.w3.org/2000/svg">
<path fill-rule="evenodd" clip-rule="evenodd" d="M11.4139 12.2952C14.7526 12.2952 17.4607 9.58855 17.4607 6.24843C17.4607 2.90976 14.7526 0.203125 11.4139 0.203125C8.07524 0.203125 5.36719 2.90976 5.36719 6.24843C5.36719 9.58851 8.07524 12.2952 11.4139 12.2952Z" />
<path d="M21.8342 21.4094C21.9249 21.9082 21.9702 22.3914 21.9858 22.8902C21.9986 22.8761 22 23.7717 22 23.9644C22 24.2209 21.8044 24.4179 21.5465 24.4179H1.292C1.0355 24.4179 0.838525 24.2209 0.838525 23.9644C0.838525 23.45 0.822937 22.9511 0.868284 22.4523C0.89946 22.1958 0.92922 21.8472 1.01991 21.4249C1.18571 20.5931 1.51873 19.475 2.19894 18.3413C3.6047 15.9677 6.37087 13.8066 11.42 13.8066C16.4677 13.8066 19.2338 15.9677 20.6552 18.3257C21.3354 19.4594 21.6684 20.5775 21.8342 21.4094Z" />
</svg>
