<svg width="17" height="23" viewBox="0 0 17 23" xmlns="http://www.w3.org/2000/svg">
<path d="M12.3214 6.57143C11.6681 6.57072 11.0417 6.31086 10.5797 5.84887C10.1177 5.38688 9.85786 4.76049 9.85714 4.10714V0H2.46429C1.81094 0.000713161 1.18455 0.260572 0.72256 0.72256C0.260572 1.18455 0.000713161 1.81094 0 2.46429V20.5357C0.000713161 21.1891 0.260572 21.8155 0.72256 22.2774C1.18455 22.7394 1.81094 22.9993 2.46429 23H13.9643C14.6176 22.9993 15.244 22.7394 15.706 22.2774C16.168 21.8155 16.4279 21.1891 16.4286 20.5357V6.57143H12.3214ZM9.48654 16.6163C9.4539 17.1293 8.73174 17.412 8.21429 17.3992C7.66028 17.4103 6.99783 17.1445 6.95888 16.6163V10.4034C6.9866 9.82212 7.64529 9.63997 8.21429 9.63691C8.74762 9.63847 9.46492 9.83594 9.48654 10.4034V16.6163ZM8.21429 8.13647C8.04923 8.15666 7.88176 8.14156 7.72297 8.0922C7.56418 8.04283 7.41767 7.9603 7.29316 7.85009C7.16864 7.73987 7.06894 7.60447 7.00066 7.45285C6.93238 7.30122 6.89707 7.13683 6.89706 6.97054C6.89706 6.80425 6.93236 6.63985 7.00064 6.48823C7.06891 6.3366 7.16861 6.2012 7.29312 6.09097C7.41763 5.98075 7.56413 5.89822 7.72292 5.84885C7.88171 5.79947 8.04918 5.78437 8.21424 5.80455C8.37772 5.78721 8.54303 5.80444 8.69943 5.85513C8.85582 5.90582 8.99981 5.98884 9.12204 6.09879C9.24427 6.20874 9.34202 6.34316 9.40892 6.49334C9.47583 6.64351 9.51041 6.80608 9.51041 6.97048C9.51042 7.13489 9.47585 7.29746 9.40894 7.44764C9.34204 7.59781 9.2443 7.73224 9.12208 7.8422C8.99985 7.95215 8.85587 8.03517 8.69948 8.08587C8.54308 8.13657 8.37777 8.15381 8.21429 8.13647ZM11.5 4.10714V0.106687C11.9007 0.217897 12.2663 0.429684 12.5621 0.721937L15.7066 3.86646C15.9987 4.16236 16.2105 4.52794 16.3218 4.92857H12.3214C12.1036 4.92835 11.8948 4.84174 11.7408 4.68774C11.5868 4.53374 11.5002 4.32493 11.5 4.10714Z" />
</svg>
