<svg width="24" height="24" viewBox="0 0 24 24" xmlns="http://www.w3.org/2000/svg">
<path d="M9 0.75H3C1.7595 0.75 0.75 1.7595 0.75 3V9C0.75 10.2405 1.7595 11.25 3 11.25H9C10.2405 11.25 11.25 10.2405 11.25 9V3C11.25 1.7595 10.2405 0.75 9 0.75Z" />
<path d="M21 0.75H15C13.7595 0.75 12.75 1.7595 12.75 3V9C12.75 10.2405 13.7595 11.25 15 11.25H21C22.2405 11.25 23.25 10.2405 23.25 9V3C23.25 1.7595 22.2405 0.75 21 0.75Z" />
<path d="M21 12.75H15C13.7595 12.75 12.75 13.7595 12.75 15V21C12.75 22.2405 13.7595 23.25 15 23.25H21C22.2405 23.25 23.25 22.2405 23.25 21V15C23.25 13.7595 22.2405 12.75 21 12.75Z" />
<path d="M9 12.75H3C1.7595 12.75 0.75 13.7595 0.75 15V21C0.75 22.2405 1.7595 23.25 3 23.25H9C10.2405 23.25 11.25 22.2405 11.25 21V15C11.25 13.7595 10.2405 12.75 9 12.75Z" />
</svg>
