<svg width="20" height="23" viewBox="0 0 20 23" xmlns="http://www.w3.org/2000/svg">
<path d="M10.2785 0.276855C9.92817 0.276855 9.57741 0.396667 9.29433 0.634444L0.844993 7.7262C0.754763 7.80266 0.682367 7.89795 0.632891 8.00538C0.583416 8.1128 0.558059 8.22976 0.558602 8.34803V19.6929C0.558602 21.4379 1.88802 22.9334 3.59657 22.9334H6.63453C7.40792 22.9334 8.05067 22.2844 8.05067 21.511V17.8686C8.05067 16.6203 9.02711 15.6376 10.2753 15.6376C11.5236 15.6376 12.5063 16.6203 12.5063 17.8686V21.511C12.5064 22.2844 13.1507 22.9334 13.9241 22.9334H16.962C18.6706 22.9334 20 21.4379 20 19.6929V8.34803C20.0003 8.22963 19.9747 8.1126 19.925 8.00517C19.8752 7.89773 19.8025 7.80251 19.712 7.7262L11.2627 0.634444C10.9796 0.396658 10.6288 0.276855 10.2785 0.276855Z" />
</svg>
