<svg width="24" height="24" viewBox="0 0 24 24" xmlns="http://www.w3.org/2000/svg">
<path d="M22.8371 2.11483L13.744 0.510173C13.6287 0.490805 13.5105 0.496723 13.3977 0.527519C13.2848 0.558315 13.18 0.613253 13.0905 0.688535C13.001 0.763816 12.9289 0.857644 12.8792 0.963531C12.8295 1.06942 12.8034 1.18483 12.8026 1.3018V2.20041L7.64637 3.44134C7.47144 3.48428 7.31589 3.58446 7.20443 3.72596C7.09298 3.86746 7.03202 4.04215 7.03125 4.22227V6.4153C7.03125 6.62809 7.11578 6.83216 7.26625 6.98263C7.41671 7.13309 7.62079 7.21762 7.83358 7.21762C8.04637 7.21762 8.25044 7.13309 8.40091 6.98263C8.55137 6.83216 8.6359 6.62809 8.6359 6.4153V4.84274L12.8026 3.84785V20.226L8.6359 19.2311V17.8832C8.6359 17.6704 8.55137 17.4664 8.40091 17.3159C8.25044 17.1654 8.04637 17.0809 7.83358 17.0809C7.62079 17.0809 7.41671 17.1654 7.26625 17.3159C7.11578 17.4664 7.03125 17.6704 7.03125 17.8832V19.8623C7.03202 20.0424 7.09298 20.2171 7.20443 20.3586C7.31589 20.5001 7.47144 20.6003 7.64637 20.6432L12.8026 21.8735V22.6972C12.8043 22.8139 12.831 22.9288 12.8809 23.0343C12.9309 23.1397 13.003 23.2332 13.0923 23.3083C13.1816 23.3834 13.2861 23.4384 13.3985 23.4695C13.511 23.5007 13.6288 23.5072 13.744 23.4888L22.8371 21.8842C23.0231 21.8514 23.1917 21.7541 23.313 21.6092C23.4343 21.4644 23.5007 21.2814 23.5003 21.0925V2.90645C23.5007 2.71753 23.4343 2.53455 23.313 2.38974C23.1917 2.24493 23.0231 2.14757 22.8371 2.11483Z" />
<path d="M10.4274 11.9994C10.4273 11.7867 10.3426 11.5828 10.1921 11.4324L6.98279 8.22312C6.88811 8.12982 6.77187 8.06133 6.64437 8.02372C6.51688 7.98611 6.38207 7.98056 6.25191 8.00754C6.12175 8.03452 6.00027 8.09322 5.89823 8.17841C5.79619 8.2636 5.71676 8.37266 5.66698 8.49592C5.60338 9.38589 5.58553 10.2785 5.61349 11.1703H1.30233C1.08954 11.1703 0.885461 11.2549 0.734996 11.4053C0.58453 11.5558 0.5 11.7599 0.5 11.9727C0.5 12.1855 0.58453 12.3895 0.734996 12.54C0.885461 12.6905 1.08954 12.775 1.30233 12.775H5.62419C5.59617 13.6668 5.61403 14.5594 5.67767 15.4494C5.72746 15.5727 5.80689 15.6817 5.90893 15.7669C6.01096 15.8521 6.13245 15.9108 6.26261 15.9378C6.39277 15.9648 6.52758 15.9592 6.65507 15.9216C6.78257 15.884 6.89881 15.8155 6.99349 15.7222L10.2028 12.5129C10.337 12.3743 10.4167 12.192 10.4274 11.9994Z" />
</svg>
